<?xml version="1.0" encoding="UTF-8" standalone="no"?>
<!-- Created with matplotlib (http://matplotlib.org/) -->

<svg
   xmlns:dc="http://purl.org/dc/elements/1.1/"
   xmlns:cc="http://creativecommons.org/ns#"
   xmlns:rdf="http://www.w3.org/1999/02/22-rdf-syntax-ns#"
   xmlns:svg="http://www.w3.org/2000/svg"
   xmlns="http://www.w3.org/2000/svg"
   xmlns:sodipodi="http://sodipodi.sourceforge.net/DTD/sodipodi-0.dtd"
   xmlns:inkscape="http://www.inkscape.org/namespaces/inkscape"
   height="72pt"
   version="1.1"
   viewBox="0 0 72 72"
   width="72pt"
   id="svg3714"
   sodipodi:docname="back.svg"
   inkscape:version="0.92.1 r15371">
  <metadata
     id="metadata3718">
    <rdf:RDF>
      <cc:Work
         rdf:about="">
        <dc:format>image/svg+xml</dc:format>
        <dc:type
           rdf:resource="http://purl.org/dc/dcmitype/StillImage" />
        <dc:title />
      </cc:Work>
    </rdf:RDF>
  </metadata>
  <sodipodi:namedview
     pagecolor="#ffffff"
     bordercolor="#666666"
     borderopacity="1"
     objecttolerance="10"
     gridtolerance="10"
     guidetolerance="10"
     inkscape:pageopacity="0"
     inkscape:pageshadow="2"
     inkscape:window-width="3840"
     inkscape:window-height="2004"
     id="namedview3716"
     showgrid="false"
     inkscape:zoom="16"
     inkscape:cx="22.337274"
     inkscape:cy="42.364273"
     inkscape:window-x="4784"
     inkscape:window-y="2392"
     inkscape:window-maximized="1"
     inkscape:current-layer="svg3714" />
  <defs
     id="defs3705">
    <style
       type="text/css"
       id="style3703">
*{stroke-linecap:butt;stroke-linejoin:round;}
  </style>
  </defs>
  <g
     id="figure_1"
     style="fill:#7f7f7f;fill-opacity:1">
    <g
       id="patch_1"
       style="fill:#7f7f7f;fill-opacity:1">
      <path
         d="M 0 72  L 72 72  L 72 0  L 0 0  z "
         style="fill:#7f7f7f;opacity:0;fill-opacity:1"
         id="path3707" />
    </g>
    <g
       id="text_1"
       style="fill:#7f7f7f;fill-opacity:1">
      <path
         d="M 65.144375 35.006875  C 65.144375 32.425 63.43375 30.15125 60.703125 30.15125  L 33.991875 30.15125  L 45.105625 19.0375  C 46.019375 18.12375 46.550625 16.87 46.550625 15.584375  C 46.550625 14.288125 46.019375 13.034375 45.105625 12.13125  L 42.258125 9.315625  C 41.344375 8.4125 40.133125 7.88125 38.8475 7.88125  C 37.55125 7.88125 36.2975 8.4125 35.394375 9.315625  L 10.69125 33.986875  C 9.82 34.900625 9.28875 36.14375 9.28875 37.44  C 9.28875 38.725625 9.82 39.979375 10.69125 40.850625  L 35.394375 65.59625  C 36.2975 66.4675 37.55125 66.99875 38.8475 66.99875  C 40.133125 66.99875 41.386875 66.4675 42.258125 65.59625  L 45.105625 62.70625  C 46.019375 61.835 46.550625 60.58125 46.550625 59.295625  C 46.550625 58.01 46.019375 56.75625 45.105625 55.885  L 33.991875 44.72875  L 60.703125 44.72875  C 63.43375 44.72875 65.144375 42.444375 65.144375 39.8625  z "
         id="path3710"
         style="fill:#7f7f7f;fill-opacity:1" />
    </g>
  </g>
</svg>
