<?xml version="1.0" encoding="UTF-8" standalone="no"?>
<!-- Created with matplotlib (http://matplotlib.org/) -->

<svg
   xmlns:dc="http://purl.org/dc/elements/1.1/"
   xmlns:cc="http://creativecommons.org/ns#"
   xmlns:rdf="http://www.w3.org/1999/02/22-rdf-syntax-ns#"
   xmlns:svg="http://www.w3.org/2000/svg"
   xmlns="http://www.w3.org/2000/svg"
   xmlns:sodipodi="http://sodipodi.sourceforge.net/DTD/sodipodi-0.dtd"
   xmlns:inkscape="http://www.inkscape.org/namespaces/inkscape"
   height="72pt"
   version="1.1"
   viewBox="0 0 72 72"
   width="72pt"
   id="svg4672"
   sodipodi:docname="qt4_editor_options.svg"
   inkscape:version="0.92.1 r15371">
  <metadata
     id="metadata4676">
    <rdf:RDF>
      <cc:Work
         rdf:about="">
        <dc:format>image/svg+xml</dc:format>
        <dc:type
           rdf:resource="http://purl.org/dc/dcmitype/StillImage" />
        <dc:title />
      </cc:Work>
    </rdf:RDF>
  </metadata>
  <sodipodi:namedview
     pagecolor="#ffffff"
     bordercolor="#666666"
     borderopacity="1"
     objecttolerance="10"
     gridtolerance="10"
     guidetolerance="10"
     inkscape:pageopacity="0"
     inkscape:pageshadow="2"
     inkscape:window-width="3840"
     inkscape:window-height="2004"
     id="namedview4674"
     showgrid="false"
     inkscape:zoom="2.4583333"
     inkscape:cx="-174.91525"
     inkscape:cy="47.999999"
     inkscape:window-x="4784"
     inkscape:window-y="2392"
     inkscape:window-maximized="1"
     inkscape:current-layer="svg4672" />
  <defs
     id="defs4663">
    <style
       type="text/css"
       id="style4661">
*{stroke-linecap:butt;stroke-linejoin:round;}
  </style>
  </defs>
  <g
     id="figure_1"
     style="fill:#7f7f7f;fill-opacity:1">
    <g
       id="patch_1"
       style="fill:#7f7f7f;fill-opacity:1">
      <path
         d="M 0 72  L 72 72  L 72 0  L 0 0  z "
         style="fill:#7f7f7f;opacity:0;fill-opacity:1"
         id="path4665" />
    </g>
    <g
       id="text_1"
       style="fill:#7f7f7f;fill-opacity:1">
      <path
         d="M 74.855625 61.72875  L 2 61.72875  L 2 8.295625  L -2.855625 8.295625  L -2.855625 66.584375  L 74.855625 66.584375  z M 70 14.373125  C 70 13.693125 69.46875 13.161875 68.78875 13.161875  L 52.2775 13.161875  C 51.215 13.161875 50.651875 14.4475 51.44875 15.244375  L 56.03875 19.834375  L 38.433125 37.44  L 29.593125 28.6  C 29.09375 28.11125 28.339375 28.11125 27.84 28.6  L 5.644375 50.795625  L 12.933125 58.084375  L 28.71125 42.295625  L 37.561875 51.14625  C 38.050625 51.635 38.805 51.635 39.304375 51.14625  L 63.3275 27.123125  L 67.9175 31.713125  C 68.714375 32.51 70 31.93625 70 30.87375  z "
         id="path4668"
         style="fill:#7f7f7f;fill-opacity:1" />
    </g>
  </g>
</svg>
