<?xml version="1.0" encoding="UTF-8" standalone="no"?>
<svg
   xmlns:dc="http://purl.org/dc/elements/1.1/"
   xmlns:cc="http://creativecommons.org/ns#"
   xmlns:rdf="http://www.w3.org/1999/02/22-rdf-syntax-ns#"
   xmlns:svg="http://www.w3.org/2000/svg"
   xmlns="http://www.w3.org/2000/svg"
   xmlns:sodipodi="http://sodipodi.sourceforge.net/DTD/sodipodi-0.dtd"
   xmlns:inkscape="http://www.inkscape.org/namespaces/inkscape"
   viewBox="0 -256 1792 1792"
   id="svg3001"
   version="1.1"
   inkscape:version="0.48.3.1 r9886"
   width="100%"
   height="100%"
   sodipodi:docname="save_font_awesome.svg">
  <metadata
     id="metadata3011">
    <rdf:RDF>
      <cc:Work
         rdf:about="">
        <dc:format>image/svg+xml</dc:format>
        <dc:type
           rdf:resource="http://purl.org/dc/dcmitype/StillImage" />
      </cc:Work>
    </rdf:RDF>
  </metadata>
  <defs
     id="defs3009" />
  <sodipodi:namedview
     pagecolor="#ffffff"
     bordercolor="#666666"
     borderopacity="1"
     objecttolerance="10"
     gridtolerance="10"
     guidetolerance="10"
     inkscape:pageopacity="0"
     inkscape:pageshadow="2"
     inkscape:window-width="640"
     inkscape:window-height="480"
     id="namedview3007"
     showgrid="false"
     inkscape:zoom="0.13169643"
     inkscape:cx="896"
     inkscape:cy="896"
     inkscape:window-x="0"
     inkscape:window-y="25"
     inkscape:window-maximized="0"
     inkscape:current-layer="svg3001" />
  <g
     transform="matrix(1,0,0,-1,129.08475,1270.2373)"
     id="g3003">
    <path
       d="m 384,0 h 768 V 384 H 384 V 0 z m 896,0 h 128 v 896 q 0,14 -10,38.5 -10,24.5 -20,34.5 l -281,281 q -10,10 -34,20 -24,10 -39,10 V 864 q 0,-40 -28,-68 -28,-28 -68,-28 H 352 q -40,0 -68,28 -28,28 -28,68 v 416 H 128 V 0 h 128 v 416 q 0,40 28,68 28,28 68,28 h 832 q 40,0 68,-28 28,-28 28,-68 V 0 z M 896,928 v 320 q 0,13 -9.5,22.5 -9.5,9.5 -22.5,9.5 H 672 q -13,0 -22.5,-9.5 Q 640,1261 640,1248 V 928 q 0,-13 9.5,-22.5 Q 659,896 672,896 h 192 q 13,0 22.5,9.5 9.5,9.5 9.5,22.5 z m 640,-32 V -32 q 0,-40 -28,-68 -28,-28 -68,-28 H 96 q -40,0 -68,28 -28,28 -28,68 v 1344 q 0,40 28,68 28,28 68,28 h 928 q 40,0 88,-20 48,-20 76,-48 l 280,-280 q 28,-28 48,-76 20,-48 20,-88 z"
       id="path3005"
       inkscape:connector-curvature="0"
       style="fill:currentColor" />
  </g>
</svg>
